<mxfile host="65bd71144e" scale="2" border="0">
    <diagram id="QZMEzfsLhwQCyHHQbAvj" name="Page-1">
        <mxGraphModel dx="726" dy="430" grid="1" gridSize="10" guides="1" tooltips="1" connect="1" arrows="1" fold="1" page="1" pageScale="1" pageWidth="827" pageHeight="1169" math="0" shadow="0">
            <root>
                <mxCell id="0"/>
                <mxCell id="1" parent="0"/>
                <mxCell id="24" value="" style="rounded=0;whiteSpace=wrap;html=1;fontColor=#B3B3B3;strokeColor=none;" parent="1" vertex="1">
                    <mxGeometry x="80" y="150" width="720" height="220" as="geometry"/>
                </mxCell>
                <mxCell id="2" value="" style="rounded=1;whiteSpace=wrap;html=1;" parent="1" vertex="1">
                    <mxGeometry x="180" y="190" width="120" height="70" as="geometry"/>
                </mxCell>
                <mxCell id="3" value="" style="rounded=1;whiteSpace=wrap;html=1;" parent="1" vertex="1">
                    <mxGeometry x="364" y="190" width="120" height="70" as="geometry"/>
                </mxCell>
                <mxCell id="4" value="" style="rounded=1;whiteSpace=wrap;html=1;" parent="1" vertex="1">
                    <mxGeometry x="550" y="190" width="120" height="100" as="geometry"/>
                </mxCell>
                <mxCell id="5" value="" style="ellipse;whiteSpace=wrap;html=1;fillColor=#d5e8d4;strokeColor=#82b366;" parent="1" vertex="1">
                    <mxGeometry x="280" y="200" width="10" height="10" as="geometry"/>
                </mxCell>
                <mxCell id="6" value="" style="ellipse;whiteSpace=wrap;html=1;fillColor=#d5e8d4;strokeColor=#82b366;" parent="1" vertex="1">
                    <mxGeometry x="374" y="200" width="10" height="10" as="geometry"/>
                </mxCell>
                <mxCell id="7" value="" style="ellipse;whiteSpace=wrap;html=1;fillColor=#d5e8d4;strokeColor=#82b366;" parent="1" vertex="1">
                    <mxGeometry x="464" y="200" width="10" height="10" as="geometry"/>
                </mxCell>
                <mxCell id="8" value="" style="ellipse;whiteSpace=wrap;html=1;fillColor=#d5e8d4;strokeColor=#82b366;" parent="1" vertex="1">
                    <mxGeometry x="560" y="200" width="10" height="10" as="geometry"/>
                </mxCell>
                <mxCell id="9" value="&lt;font color=&quot;#b3b3b3&quot;&gt;Module 1&lt;/font&gt;" style="rounded=1;whiteSpace=wrap;html=1;fillColor=#f5f5f5;fontColor=#333333;strokeColor=#666666;" parent="1" vertex="1">
                    <mxGeometry x="190" y="220" width="100" height="30" as="geometry"/>
                </mxCell>
                <mxCell id="10" value="&lt;font color=&quot;#b3b3b3&quot;&gt;Module 2&lt;/font&gt;" style="rounded=1;whiteSpace=wrap;html=1;fillColor=#f5f5f5;fontColor=#333333;strokeColor=#666666;" parent="1" vertex="1">
                    <mxGeometry x="374" y="220" width="100" height="30" as="geometry"/>
                </mxCell>
                <mxCell id="11" value="&lt;font color=&quot;#b3b3b3&quot;&gt;Module 3&lt;/font&gt;" style="rounded=1;whiteSpace=wrap;html=1;fillColor=#f5f5f5;fontColor=#333333;strokeColor=#666666;" parent="1" vertex="1">
                    <mxGeometry x="560" y="240" width="100" height="40" as="geometry"/>
                </mxCell>
                <mxCell id="12" value="" style="endArrow=open;html=1;exitX=1;exitY=0.25;exitDx=0;exitDy=0;entryX=0;entryY=0.25;entryDx=0;entryDy=0;endFill=0;" parent="1" source="2" target="3" edge="1">
                    <mxGeometry width="50" height="50" relative="1" as="geometry">
                        <mxPoint x="300" y="200" as="sourcePoint"/>
                        <mxPoint x="350" y="150" as="targetPoint"/>
                    </mxGeometry>
                </mxCell>
                <mxCell id="13" value="" style="endArrow=open;html=1;exitX=1;exitY=0.25;exitDx=0;exitDy=0;entryX=0.002;entryY=0.172;entryDx=0;entryDy=0;endFill=0;entryPerimeter=0;" parent="1" source="3" target="4" edge="1">
                    <mxGeometry width="50" height="50" relative="1" as="geometry">
                        <mxPoint x="490" y="180" as="sourcePoint"/>
                        <mxPoint x="540" y="130" as="targetPoint"/>
                    </mxGeometry>
                </mxCell>
                <mxCell id="14" value="" style="rounded=1;whiteSpace=wrap;html=1;" parent="1" vertex="1">
                    <mxGeometry x="364" y="280" width="120" height="70" as="geometry"/>
                </mxCell>
                <mxCell id="15" value="" style="ellipse;whiteSpace=wrap;html=1;fillColor=#d5e8d4;strokeColor=#82b366;" parent="1" vertex="1">
                    <mxGeometry x="374" y="290" width="10" height="10" as="geometry"/>
                </mxCell>
                <mxCell id="16" value="" style="ellipse;whiteSpace=wrap;html=1;fillColor=#d5e8d4;strokeColor=#82b366;" parent="1" vertex="1">
                    <mxGeometry x="464" y="290" width="10" height="10" as="geometry"/>
                </mxCell>
                <mxCell id="17" value="&lt;font color=&quot;#b3b3b3&quot;&gt;Module 4&lt;/font&gt;" style="rounded=1;whiteSpace=wrap;html=1;fillColor=#f5f5f5;fontColor=#333333;strokeColor=#666666;" parent="1" vertex="1">
                    <mxGeometry x="374" y="310" width="100" height="30" as="geometry"/>
                </mxCell>
                <mxCell id="19" value="" style="endArrow=open;html=1;fontColor=#B3B3B3;exitX=1;exitY=0.25;exitDx=0;exitDy=0;entryX=0;entryY=0.25;entryDx=0;entryDy=0;endFill=0;" parent="1" source="2" target="14" edge="1">
                    <mxGeometry width="50" height="50" relative="1" as="geometry">
                        <mxPoint x="230" y="390" as="sourcePoint"/>
                        <mxPoint x="280" y="340" as="targetPoint"/>
                        <Array as="points">
                            <mxPoint x="320" y="208"/>
                            <mxPoint x="320" y="298"/>
                        </Array>
                    </mxGeometry>
                </mxCell>
                <mxCell id="20" value="" style="ellipse;whiteSpace=wrap;html=1;fillColor=#d5e8d4;strokeColor=#82b366;" parent="1" vertex="1">
                    <mxGeometry x="560" y="220" width="10" height="10" as="geometry"/>
                </mxCell>
                <mxCell id="22" value="" style="endArrow=open;html=1;fontColor=#B3B3B3;exitX=1;exitY=0.25;exitDx=0;exitDy=0;entryX=-0.008;entryY=0.34;entryDx=0;entryDy=0;entryPerimeter=0;endFill=0;" parent="1" source="14" target="4" edge="1">
                    <mxGeometry width="50" height="50" relative="1" as="geometry">
                        <mxPoint x="530" y="380" as="sourcePoint"/>
                        <mxPoint x="580" y="330" as="targetPoint"/>
                        <Array as="points">
                            <mxPoint x="510" y="298"/>
                            <mxPoint x="510" y="224"/>
                        </Array>
                    </mxGeometry>
                </mxCell>
            </root>
        </mxGraphModel>
    </diagram>
</mxfile>